<?xml version="1.0" encoding="UTF-8" standalone="no"?>
<!-- Created with Inkscape (http://www.inkscape.org/) -->

<svg
   width="210mm"
   height="297mm"
   viewBox="0 0 210 297"
   version="1.1"
   id="svg1"
   inkscape:export-filename="AppLogo.png"
   inkscape:export-xdpi="96"
   inkscape:export-ydpi="96"
   inkscape:version="1.3.2 (091e20e, 2023-11-25, custom)"
   sodipodi:docname="AppLogo.svg"
   xmlns:inkscape="http://www.inkscape.org/namespaces/inkscape"
   xmlns:sodipodi="http://sodipodi.sourceforge.net/DTD/sodipodi-0.dtd"
   xmlns="http://www.w3.org/2000/svg"
   xmlns:svg="http://www.w3.org/2000/svg">
  <sodipodi:namedview
     id="namedview1"
     pagecolor="#505050"
     bordercolor="#eeeeee"
     borderopacity="1"
     inkscape:showpageshadow="0"
     inkscape:pageopacity="0"
     inkscape:pagecheckerboard="0"
     inkscape:deskcolor="#505050"
     inkscape:document-units="mm"
     inkscape:zoom="0.52347032"
     inkscape:cx="385.88625"
     inkscape:cy="732.61079"
     inkscape:window-width="1920"
     inkscape:window-height="1009"
     inkscape:window-x="-8"
     inkscape:window-y="-8"
     inkscape:window-maximized="1"
     inkscape:current-layer="layer1" />
  <defs
     id="defs1" />
  <g
     inkscape:label="Calque 1"
     inkscape:groupmode="layer"
     id="layer1">
    <text
       xml:space="preserve"
       style="font-size:60.7478px;font-family:'Berlin Sans FB';-inkscape-font-specification:'Berlin Sans FB, Normal';fill:#ffffff;fill-rule:evenodd;stroke-width:2.2;stroke-linecap:round;stroke-linejoin:round;stroke-dashoffset:2501.14;font-weight:normal;font-style:normal;font-stretch:normal;font-variant:normal;font-variant-ligatures:normal;font-variant-caps:normal;font-variant-numeric:normal;font-variant-east-asian:normal"
       x="38.918953"
       y="116.75686"
       id="text1"><tspan
         sodipodi:role="line"
         id="tspan1"
         style="stroke-width:2.2;-inkscape-font-specification:'Berlin Sans FB, Normal';font-family:'Berlin Sans FB';font-weight:normal;font-style:normal;font-stretch:normal;font-variant:normal;font-size:60.747798px;font-variant-ligatures:normal;font-variant-caps:normal;font-variant-numeric:normal;font-variant-east-asian:normal"
         x="38.918953"
         y="116.75686" /></text>
    <path
       style="fill:#e18000;fill-opacity:1;fill-rule:evenodd;stroke:none;stroke-width:2.10136;stroke-linecap:round;stroke-linejoin:round;stroke-dashoffset:2501.14;stroke-opacity:1"
       d="m 16.858446,131.63429 c -0.09031,7.61947 0.01784,15.27602 0.05035,22.90971 0.64139,0.72641 2.014995,0.15264 2.904312,0.36575 3.322454,-0.0868 6.696799,0.15466 9.986408,-0.3386 5.604272,-1.81649 8.396089,-8.35895 7.252877,-13.8868 -0.658391,-4.32163 -3.977184,-8.40315 -8.510063,-8.8541 -3.861258,-0.42244 -7.845761,-0.36062 -11.68388,-0.19596 z m 7.354066,3.45813 c 2.446557,-0.18895 5.107316,0.29123 6.749907,2.27892 2.4295,2.49743 2.331503,6.48786 1.281867,9.6019 -1.024245,2.29331 -3.17496,4.51298 -5.8644,4.23011 -1.627706,0.004 -3.316684,0.0605 -4.896458,-0.12537 -0.369128,-5.21681 -0.382775,-10.51112 0.0039,-15.72692 0.805969,-0.31475 1.850689,-0.19051 2.725137,-0.25864 z"
       id="path4" />
    <path
       style="fill:#d6668c;fill-opacity:1;fill-rule:evenodd;stroke:none;stroke-width:2.10136;stroke-linecap:round;stroke-linejoin:round;stroke-dashoffset:2501.14;stroke-opacity:1"
       d="m 39.728168,131.63429 c -0.0327,5.69115 0.632915,11.39247 0.170318,17.09478 0.03825,1.97604 -0.364067,4.06958 -0.0069,5.98621 1.421931,0.33724 3.018351,0.19808 4.433467,0.0385 0.130354,-7.63726 0.04363,-15.30906 0.09033,-22.95956 -1.181198,-0.61667 -2.978669,-0.0861 -4.392004,-0.26506 h -0.08391 z"
       id="path5" />
    <path
       style="fill:#4baae1;fill-opacity:1;fill-rule:evenodd;stroke:none;stroke-width:1.48589;stroke-linecap:round;stroke-linejoin:round;stroke-dashoffset:2501.14;stroke-opacity:1"
       d="m 55.051504,131.14894 c -3.319918,-0.11824 -6.843855,2.24384 -7.170351,5.70864 -0.362905,2.20526 0.14687,4.7539 2.117878,6.06639 1.766769,1.39225 4.202758,1.99127 5.468509,3.92164 0.484881,1.24605 0.02932,2.85161 -1.302906,3.34016 -1.913541,0.87771 -4.157869,0.0615 -6.128515,0.54727 -0.127775,1.28301 0.378307,2.63026 0.679202,3.90244 0.328533,1.22222 1.936755,0.73057 2.851525,0.79472 3.686577,-0.1291 7.8007,-2.14307 8.772374,-5.9711 0.645406,-2.39359 0.193569,-5.33052 -2.007237,-6.78957 -1.782273,-1.49609 -4.325467,-2.01684 -5.757852,-3.91675 -0.636781,-1.32136 0.367837,-3.02424 1.854017,-3.02429 1.826633,-0.24684 3.494363,0.81021 5.212326,1.06941 0.69782,-1.14165 1.367298,-2.39225 1.801313,-3.66825 -0.56279,-0.90031 -1.836378,-1.03448 -2.763923,-1.4467 -1.174353,-0.35105 -2.398889,-0.55103 -3.62636,-0.53401 z"
       id="path6" />
    <path
       style="fill:#34a674;fill-opacity:1;fill-rule:evenodd;stroke:none;stroke-width:1.48589;stroke-linecap:round;stroke-linejoin:round;stroke-dashoffset:2501.14;stroke-opacity:1"
       d="m 73.709288,130.68474 c -3.093691,0.11166 -6.234213,1.35768 -8.116263,3.90499 -3.358552,4.02033 -3.750635,9.99189 -1.677686,14.69022 1.748414,3.98229 6.028306,6.73569 10.411018,6.31769 3.008881,-0.19848 6.005044,-1.70222 7.812561,-4.12502 0.325692,-1.20852 -0.987377,-2.06281 -1.562229,-2.97264 -0.632826,-0.97139 -1.628349,0.15105 -2.180008,0.62231 -2.273867,2.13042 -6.201209,2.67189 -8.561909,0.38567 -2.427666,-2.35085 -2.651368,-6.23162 -1.916356,-9.39116 0.557414,-2.77404 3.229351,-5.07732 6.101853,-4.74885 2.169662,-0.17537 3.803131,1.40079 5.330994,2.68783 0.878366,0.77532 1.442908,-0.66998 1.851223,-1.24113 0.497041,-0.81152 1.305759,-1.95691 0.364382,-2.78102 -1.926085,-2.3078 -4.931844,-3.28278 -7.85758,-3.34889 z"
       id="path7" />
    <path
       style="fill:#e3ab00;fill-opacity:1;fill-rule:evenodd;stroke:none;stroke-width:1.48589;stroke-linecap:round;stroke-linejoin:round;stroke-dashoffset:2501.14;stroke-opacity:1"
       d="m 87.519125,131.01806 c -1.273355,0.38069 -2.645209,0.26841 -3.907324,0.50469 -0.115975,1.865 0.175932,3.78992 0.114382,5.69251 0.06223,5.82634 0.03893,11.64938 -0.239334,17.4628 0.562154,0.90438 2.040744,0.19925 2.993413,0.37575 1.143577,0.19492 2.343544,-0.12286 1.891403,-1.53622 -0.02021,-4.8053 -0.138906,-9.63113 -0.03966,-14.42451 4.148627,5.19453 8.056689,10.57768 12.096825,15.85686 1.24955,0.37701 2.66301,-0.016 3.97539,0.0663 0.86988,-0.6325 0.21326,-2.11885 0.42927,-3.10067 0.0538,-6.72966 0.0684,-13.45981 0.16651,-20.18901 -0.58043,-0.89023 -2.05656,-0.22907 -3.01452,-0.43035 -1.14385,-0.21618 -2.391155,0.0502 -1.94046,1.49626 0.0102,4.85892 0.27052,9.71562 0.21942,14.57456 -4.216884,-5.32327 -8.064838,-10.93519 -12.343235,-16.20903 -0.138531,-0.0225 -0.249132,-0.19459 -0.402077,-0.13996 z"
       id="path8" />
    <path
       style="fill:#868ac8;fill-opacity:1;fill-rule:evenodd;stroke:none;stroke-width:1.48589;stroke-linecap:round;stroke-linejoin:round;stroke-dashoffset:2501.14;stroke-opacity:1"
       d="m 118.48594,130.70813 c -5.47864,0.0743 -10.1262,4.68575 -11.02637,9.95451 -0.80599,4.14667 0.34444,8.74723 3.51817,11.65113 2.10637,2.32409 5.27355,3.57354 8.40041,3.25016 5.03355,-0.0118 9.39079,-4.11487 10.58091,-8.85828 1.22931,-4.3807 0.0634,-9.35717 -3.20264,-12.57465 -2.09436,-2.2759 -5.19609,-3.49375 -8.27048,-3.42287 z m 0.29318,4.65144 c 3.60955,-0.23274 6.55934,3.15116 6.85798,6.57282 0.53372,3.58395 -1.32332,7.86306 -5.01967,8.88267 -2.23453,0.5263 -4.8477,0.15179 -6.37771,-1.72523 -3.51444,-3.5139 -3.08732,-10.01962 1.13188,-12.77428 1.00217,-0.71104 2.17381,-1.06187 3.40752,-0.95598 z"
       id="path9" />
    <path
       style="fill:#b5ac93;fill-opacity:1;fill-rule:evenodd;stroke:none;stroke-width:1.48589;stroke-linecap:round;stroke-linejoin:round;stroke-dashoffset:2501.14;stroke-opacity:1"
       d="m 147.43296,131.16186 c -4.89654,0.42945 -9.81435,0.32717 -14.72638,0.0469 -1.38552,-0.34547 -1.16211,1.32854 -1.42222,2.19969 -0.12419,0.66548 -0.62691,2.03088 0.5172,2.00693 1.88393,0.0822 3.76963,-0.0751 5.6535,-0.10784 0.34526,6.39835 0.01,12.78367 -0.15288,19.18585 0.14371,1.16664 1.80729,0.38136 2.62222,0.57345 0.8336,-0.22275 2.67725,0.51175 2.5974,-0.83727 -0.0877,-6.32262 -0.43173,-12.65849 -0.0652,-18.96915 1.97498,-0.005 4.00982,0.34878 5.94667,0.11448 0.21553,-1.28479 0.0666,-2.71278 -0.0559,-4.00773 -0.11238,-0.36597 -0.63788,-0.20677 -0.91435,-0.20534 z"
       id="path10" />
    <path
       style="fill:#ffd1be;fill-opacity:1;fill-rule:evenodd;stroke:none;stroke-width:2.97177;stroke-linecap:round;stroke-linejoin:round;stroke-dashoffset:2501.14;stroke-opacity:1"
       d="m 157.60597,131.29728 c -2.49426,0.1194 -5.09822,-0.23295 -7.52776,0.16474 -0.20522,7.67662 -0.0293,15.41636 -0.088,23.11726 1.57346,1.01841 4.18159,0.18558 6.13451,0.50836 3.0522,-0.0969 6.23301,0.35311 9.21766,0.0654 0.6975,-1.14803 0.53656,-2.83745 0.67292,-4.11989 -3.41714,-0.4035 -7.06402,0.74171 -10.46514,0.0168 -1.53365,-1.32003 -0.89397,-3.72276 -0.8216,-5.50969 0.90733,-1.54129 3.24123,-0.63226 4.71773,-0.81347 1.75333,-0.13968 3.85837,0.62398 5.42561,-0.31598 -0.0116,-1.1648 0.9651,-2.91319 0.0907,-3.72548 -3.40344,0.0264 -6.80689,0.0528 -10.21035,0.0789 0.26951,-1.71451 -0.82267,-4.06524 0.47049,-5.44896 3.26365,-0.7855 6.75071,0.60209 9.98628,-0.22617 1.00088,-0.92416 0.15304,-2.74718 -0.27169,-3.67892 -2.35077,-0.26497 -4.91225,-0.0372 -7.33145,-0.11288 z"
       id="path11" />
  </g>
</svg>
